<svg viewBox="0 0 28 28" fill="none" xmlns="http://www.w3.org/2000/svg">
  <path
    d="M25.375 3.638A2.734 2.734 0 0 0 22.647.93L5.34.875a2.715 2.715 0 0 0-2.715 2.708v17.854c0 1.493 1.218 2.625 2.715 2.625h14.785l-.71-2.406 5.96 5.469V3.638Zm-7.62 14.399s-.478-.569-.876-1.057c1.736-.489 2.398-1.558 2.398-1.558a7.606 7.606 0 0 1-1.523.78 9.485 9.485 0 0 1-1.92.567 9.299 9.299 0 0 1-3.43-.013 10.083 10.083 0 0 1-1.946-.569 7.747 7.747 0 0 1-.967-.449c-.04-.026-.08-.039-.12-.066-.026-.013-.04-.026-.054-.026a4.652 4.652 0 0 1-.37-.225s.635 1.044 2.317 1.546c-.398.502-.888 1.083-.888 1.083-2.926-.092-4.038-1.994-4.038-1.994 0-4.215 1.907-7.636 1.907-7.636 1.907-1.413 3.708-1.374 3.708-1.374l.132.16c-2.384.673-3.47 1.716-3.47 1.716s.291-.158.781-.37c1.417-.62 2.543-.78 3.008-.832.074-.015.15-.024.226-.027a11.245 11.245 0 0 1 2.674-.026c1.397.16 2.75.587 3.987 1.255 0 0-1.047-.992-3.298-1.665l.185-.211s1.814-.04 3.709 1.376c0 0 1.907 3.421 1.907 7.635 0-.015-1.113 1.887-4.04 1.98Z"
    fill="#5865F2"></path>
  <path
    d="M11.597 11.922c-.755 0-1.351.647-1.351 1.453s.609 1.453 1.35 1.453c.755 0 1.351-.647 1.351-1.453.014-.807-.596-1.453-1.35-1.453Zm4.833 0c-.755 0-1.351.647-1.351 1.453s.61 1.453 1.35 1.453c.756 0 1.352-.647 1.352-1.453s-.61-1.453-1.351-1.453Z"
    fill="#5865F2"></path>
</svg>
