<svg viewBox="0 0 28 28" fill="none" xmlns="http://www.w3.org/2000/svg">
  <path
    d="M27.125 5.988c-.985.428-2.026.71-3.093.837a5.332 5.332 0 0 0 2.37-2.931 10.813 10.813 0 0 1-3.421 1.285A5.423 5.423 0 0 0 19.048 3.5c-2.976 0-5.384 2.373-5.384 5.3-.002.406.044.812.139 1.208A15.35 15.35 0 0 1 2.7 4.468a5.233 5.233 0 0 0-.732 2.663c0 1.838.958 3.462 2.406 4.413a5.331 5.331 0 0 1-2.449-.661v.065c0 2.57 1.86 4.709 4.32 5.196-.462.123-.94.186-1.418.186-.34 0-.68-.033-1.012-.099.684 2.106 2.675 3.637 5.034 3.68a10.915 10.915 0 0 1-7.975 2.194A15.24 15.24 0 0 0 9.119 24.5c9.918 0 15.336-8.077 15.336-15.083 0-.23-.006-.46-.017-.683a10.855 10.855 0 0 0 2.687-2.746Z"
    fill="#1C9BEF"></path>
</svg>
